<svg width="150" height="25" viewBox="0 0 150 25" fill="none" xmlns="http://www.w3.org/2000/svg">
<path d="M20.3243 0H4C1.79086 0 0 1.79086 0 4V20.3243C0 22.5335 1.79086 24.3243 4 24.3243H20.3243C22.5335 24.3243 24.3243 22.5335 24.3243 20.3243V4C24.3243 1.79086 22.5335 0 20.3243 0Z" fill="#03A10A"/>
<mask id="mask0_390_2" style="mask-type:alpha" maskUnits="userSpaceOnUse" x="6" y="8" width="13" height="8">
<path d="M6.49023 8.92871H18.6412V15.4011H6.49023V8.92871Z" fill="white"/>
</mask>
<g mask="url(#mask0_390_2)">
<path fill-rule="evenodd" clip-rule="evenodd" d="M6.49023 13.2194C6.84519 13.2958 7.16624 13.2501 7.48658 13.193C8.3254 13.0436 9.06298 12.6696 9.75749 12.2165C10.2784 11.8766 10.7747 11.5021 11.2836 11.1452C11.6721 10.8728 12.0648 10.6059 12.4526 10.3326C12.8916 10.0232 13.3488 9.74197 13.8271 9.49206C14.1686 9.31368 14.5222 9.15972 14.8979 9.06628C15.1461 9.00455 15.4035 8.96738 15.6592 8.94566C15.8908 8.92598 16.1286 8.91976 16.3586 8.94716C16.8351 9.00397 17.2765 9.16097 17.6614 9.44813C17.9777 9.68403 18.2275 9.97308 18.3838 10.3251C18.4786 10.5389 18.5482 10.7662 18.5991 10.9936C18.6381 11.1677 18.6452 11.3519 18.6394 11.5308C18.6294 11.8399 18.5849 12.1458 18.4613 12.4357C18.3923 12.5976 18.3231 12.7593 18.2528 12.9207C18.2463 12.9356 18.2305 12.9467 18.219 12.9596C18.2056 12.9437 18.1844 12.9296 18.18 12.9116C18.0603 12.4326 17.7549 12.0929 17.3135 11.8624C16.9701 11.6831 16.5967 11.6152 16.2092 11.658C15.9758 11.6838 15.7381 11.7158 15.5162 11.7858C15.1259 11.9089 14.7653 12.0967 14.4291 12.3272C13.6493 12.8619 12.9777 13.5117 12.3031 14.1587C11.9442 14.5029 11.5692 14.8284 11.117 15.0584C10.8951 15.1712 10.6666 15.2719 10.4154 15.31C10.1863 15.3446 9.95597 15.4046 9.72712 15.4009C9.1961 15.3922 8.70934 15.2383 8.26578 14.9434C7.76626 14.6113 7.32393 14.2221 6.92327 13.7873C6.77984 13.6316 6.65334 13.4615 6.52056 13.2969C6.50733 13.2805 6.50429 13.2565 6.49023 13.2194Z" fill="white"/>
</g>
<path fill-rule="evenodd" clip-rule="evenodd" d="M11.3515 10.1125C11.1565 10.2445 10.9822 10.3659 10.804 10.4825C10.3755 10.7629 9.95458 11.0533 9.51316 11.3167C9.07685 11.577 8.6207 11.8122 8.11625 11.9596C7.90267 12.022 7.69024 12.097 7.47034 12.13C7.26636 12.1606 7.05815 12.1763 6.84282 12.1454C6.53402 12.101 6.27256 11.9968 6.06675 11.7919C5.91806 11.6438 5.82999 11.4653 5.75504 11.278C5.68253 11.0968 5.67432 10.9143 5.67596 10.7272C5.67818 10.4755 5.77104 10.2476 5.90316 10.0306C6.11865 9.67662 6.42939 9.40581 6.82741 9.2127C7.05659 9.10152 7.29725 9.01839 7.5563 8.98539C7.78064 8.9568 8.00724 8.9133 8.2313 8.91955C8.49664 8.92696 8.76521 8.96295 9.0234 9.01905C9.30328 9.07986 9.58478 9.15593 9.84385 9.26564C10.1679 9.40289 10.4738 9.57572 10.7799 9.74394C10.9549 9.84006 11.1149 9.95751 11.2816 10.0654C11.3006 10.0778 11.3192 10.0907 11.3515 10.1125Z" fill="white"/>
<path fill-rule="evenodd" clip-rule="evenodd" d="M11.3516 16.1176C11.4707 16.0731 11.5923 16.0327 11.7084 15.9835C12.263 15.7483 12.738 15.4248 13.1801 15.0646C13.5909 14.7301 13.9968 14.391 14.418 14.0657C14.8428 13.7376 15.2867 13.4236 15.8066 13.2038C16.2275 13.026 16.6731 12.9097 17.1585 13.0105C17.5089 13.0832 17.7775 13.3468 17.8267 13.6452C17.885 13.999 17.7119 14.2869 17.479 14.5564C17.2157 14.8611 16.845 15.0668 16.4724 15.2686C16.0117 15.5182 15.5188 15.7158 15.0033 15.8693C14.6925 15.9619 14.3673 16.0237 14.0449 16.0866C13.4019 16.2119 12.7476 16.2341 12.091 16.205C11.8446 16.194 11.5998 16.1594 11.3543 16.1356C11.3534 16.1296 11.3525 16.1236 11.3516 16.1176Z" fill="white"/>
<path d="M33.2061 20V6.49219H37.3623C38.5498 6.49219 39.6105 6.76123 40.5444 7.29932C41.4845 7.83122 42.2174 8.59196 42.7432 9.58154C43.2689 10.5649 43.5317 11.6844 43.5317 12.9399V13.5615C43.5317 14.8171 43.272 15.9334 42.7524 16.9106C42.2391 17.8879 41.5124 18.6455 40.5723 19.1836C39.6322 19.7217 38.5715 19.9938 37.3901 20H33.2061ZM35.9893 8.74658V17.7642H37.3345C38.423 17.7642 39.2549 17.4085 39.8301 16.6973C40.4053 15.986 40.6991 14.9686 40.7114 13.645V12.9307C40.7114 11.5576 40.4269 10.5186 39.8579 9.81348C39.2889 9.10221 38.457 8.74658 37.3623 8.74658H35.9893ZM44.9697 14.8882C44.9697 13.8924 45.1615 13.0049 45.5449 12.2256C45.9284 11.4463 46.4788 10.8433 47.1963 10.4165C47.9199 9.98975 48.758 9.77637 49.7104 9.77637C51.0649 9.77637 52.1689 10.1908 53.0225 11.0195C53.8822 11.8483 54.3615 12.974 54.4604 14.3965L54.479 15.083C54.479 16.623 54.0492 17.86 53.1895 18.7939C52.3298 19.7217 51.1763 20.1855 49.729 20.1855C48.2817 20.1855 47.1252 19.7217 46.2593 18.7939C45.3996 17.8662 44.9697 16.6045 44.9697 15.0088V14.8882ZM47.6509 15.083C47.6509 16.0355 47.8302 16.7653 48.189 17.2725C48.5477 17.7734 49.061 18.0239 49.729 18.0239C50.3784 18.0239 50.8856 17.7765 51.2505 17.2817C51.6154 16.7808 51.7979 15.9829 51.7979 14.8882C51.7979 13.9543 51.6154 13.2306 51.2505 12.7173C50.8856 12.2039 50.3722 11.9473 49.7104 11.9473C49.0549 11.9473 48.5477 12.2039 48.189 12.7173C47.8302 13.2244 47.6509 14.013 47.6509 15.083ZM55.7129 14.8882C55.7129 13.8924 55.9046 13.0049 56.2881 12.2256C56.6715 11.4463 57.222 10.8433 57.9395 10.4165C58.6631 9.98975 59.5011 9.77637 60.4536 9.77637C61.8081 9.77637 62.9121 10.1908 63.7656 11.0195C64.6253 11.8483 65.1047 12.974 65.2036 14.3965L65.2222 15.083C65.2222 16.623 64.7923 17.86 63.9326 18.7939C63.0729 19.7217 61.9194 20.1855 60.4722 20.1855C59.0249 20.1855 57.8683 19.7217 57.0024 18.7939C56.1427 17.8662 55.7129 16.6045 55.7129 15.0088V14.8882ZM58.394 15.083C58.394 16.0355 58.5734 16.7653 58.9321 17.2725C59.2909 17.7734 59.8042 18.0239 60.4722 18.0239C61.1216 18.0239 61.6287 17.7765 61.9937 17.2817C62.3586 16.7808 62.541 15.9829 62.541 14.8882C62.541 13.9543 62.3586 13.2306 61.9937 12.7173C61.6287 12.2039 61.1154 11.9473 60.4536 11.9473C59.798 11.9473 59.2909 12.2039 58.9321 12.7173C58.5734 13.2244 58.394 14.013 58.394 15.083ZM72.5142 12.4761C72.1493 12.4266 71.8276 12.4019 71.5493 12.4019C70.535 12.4019 69.8701 12.7451 69.5547 13.4316V20H66.8735V9.96191H69.4062L69.4805 11.1587C70.0186 10.2371 70.7638 9.77637 71.7163 9.77637C72.0132 9.77637 72.2915 9.81657 72.5513 9.89697L72.5142 12.4761ZM79.2495 17.2261C79.2495 16.8983 79.0856 16.6416 78.7578 16.4561C78.4362 16.2643 77.9167 16.0942 77.1992 15.9458C74.8118 15.4448 73.6182 14.4305 73.6182 12.9028C73.6182 12.0122 73.9862 11.27 74.7222 10.6763C75.4644 10.0763 76.4323 9.77637 77.626 9.77637C78.9001 9.77637 79.9175 10.0763 80.6782 10.6763C81.4451 11.2762 81.8286 12.0555 81.8286 13.0142H79.1475C79.1475 12.6307 79.0238 12.3153 78.7764 12.0679C78.529 11.8143 78.1424 11.6875 77.6167 11.6875C77.1652 11.6875 76.8158 11.7896 76.5684 11.9937C76.321 12.1978 76.1973 12.4575 76.1973 12.7729C76.1973 13.0698 76.3364 13.311 76.6147 13.4966C76.8993 13.6759 77.3755 13.8337 78.0435 13.9697C78.7114 14.0996 79.2743 14.248 79.7319 14.415C81.1483 14.9346 81.8564 15.8345 81.8564 17.1147C81.8564 18.0301 81.4637 18.7723 80.6782 19.3413C79.8927 19.9041 78.8784 20.1855 77.6353 20.1855C76.7941 20.1855 76.0457 20.0371 75.3901 19.7402C74.7407 19.4372 74.2305 19.0259 73.8594 18.5063C73.4883 17.9806 73.3027 17.4147 73.3027 16.8086H75.8447C75.8695 17.2848 76.0457 17.6497 76.3735 17.9033C76.7013 18.1569 77.1405 18.2837 77.6909 18.2837C78.2043 18.2837 78.5908 18.1878 78.8506 17.9961C79.1165 17.7982 79.2495 17.5415 79.2495 17.2261ZM86.1055 9.96191L86.189 11.0845C86.9002 10.2124 87.862 9.77637 89.0742 9.77637C90.3669 9.77637 91.2544 10.2866 91.7368 11.3071C92.4419 10.2866 93.4469 9.77637 94.752 9.77637C95.8405 9.77637 96.6507 10.0949 97.1826 10.7319C97.7145 11.3628 97.9805 12.3153 97.9805 13.5894V20H95.29V13.5986C95.29 13.0296 95.1787 12.6152 94.9561 12.3555C94.7334 12.0895 94.3407 11.9565 93.7778 11.9565C92.9738 11.9565 92.4172 12.34 92.1079 13.1069L92.1172 20H89.436V13.6079C89.436 13.0265 89.3216 12.606 89.0928 12.3462C88.8639 12.0864 88.4743 11.9565 87.9238 11.9565C87.1631 11.9565 86.6126 12.272 86.2725 12.9028V20H83.5913V9.96191H86.1055ZM104.669 20.1855C103.197 20.1855 101.998 19.734 101.07 18.8311C100.148 17.9281 99.6875 16.7251 99.6875 15.2222V14.9624C99.6875 13.9543 99.8823 13.0544 100.272 12.2627C100.662 11.4648 101.212 10.8525 101.923 10.4258C102.641 9.99284 103.457 9.77637 104.373 9.77637C105.746 9.77637 106.825 10.2093 107.61 11.0752C108.402 11.9411 108.798 13.1688 108.798 14.7583V15.853H102.406C102.492 16.5086 102.752 17.0343 103.185 17.4302C103.624 17.826 104.178 18.0239 104.846 18.0239C105.879 18.0239 106.686 17.6497 107.267 16.9014L108.584 18.3765C108.182 18.9455 107.638 19.3908 106.952 19.7124C106.265 20.0278 105.504 20.1855 104.669 20.1855ZM104.363 11.9473C103.831 11.9473 103.398 12.1266 103.064 12.4854C102.737 12.8441 102.526 13.3574 102.434 14.0254H106.163V13.812C106.151 13.2183 105.99 12.7606 105.681 12.439C105.371 12.1112 104.932 11.9473 104.363 11.9473ZM114.949 20.1855C113.477 20.1855 112.277 19.734 111.349 18.8311C110.428 17.9281 109.967 16.7251 109.967 15.2222V14.9624C109.967 13.9543 110.162 13.0544 110.551 12.2627C110.941 11.4648 111.491 10.8525 112.203 10.4258C112.92 9.99284 113.736 9.77637 114.652 9.77637C116.025 9.77637 117.104 10.2093 117.89 11.0752C118.681 11.9411 119.077 13.1688 119.077 14.7583V15.853H112.685C112.772 16.5086 113.031 17.0343 113.464 17.4302C113.903 17.826 114.457 18.0239 115.125 18.0239C116.158 18.0239 116.965 17.6497 117.546 16.9014L118.864 18.3765C118.462 18.9455 117.917 19.3908 117.231 19.7124C116.544 20.0278 115.784 20.1855 114.949 20.1855ZM114.643 11.9473C114.111 11.9473 113.678 12.1266 113.344 12.4854C113.016 12.8441 112.806 13.3574 112.713 14.0254H116.442V13.812C116.43 13.2183 116.269 12.7606 115.96 12.439C115.651 12.1112 115.212 11.9473 114.643 11.9473ZM126.249 12.4761C125.884 12.4266 125.562 12.4019 125.284 12.4019C124.269 12.4019 123.604 12.7451 123.289 13.4316V20H120.608V9.96191H123.141L123.215 11.1587C123.753 10.2371 124.498 9.77637 125.451 9.77637C125.748 9.77637 126.026 9.81657 126.286 9.89697L126.249 12.4761Z" fill="white"/>
</svg>
